<?xml version="1.0" encoding="UTF-8"?>
<svg id="Layer_1" xmlns="http://www.w3.org/2000/svg" viewBox="0 0 342.9 591.4">
  <defs>
    <style>
      .cls-1, .cls-2 {
        stroke: #f89520;
      }

      .cls-1, .cls-2, .cls-3, .cls-4 {
        fill: none;
        stroke-miterlimit: 10;
      }

      .cls-1, .cls-3, .cls-4 {
        stroke-width: 1.5px;
      }

      .cls-2 {
        stroke-width: 1.7px;
      }

      .cls-3 {
        stroke: #c4542e;
      }

      .cls-4 {
        stroke: #2a743a;
      }
    </style>
  </defs>
  <path class="cls-3" d="M23.7,472.9c-2.7,0-3.9.3-3.9,3.3v.4c.2,6.2,1.3,29.8,1.3,52.7,0,5.5-.1,11.1-.2,16.2h-2.8c-1.5.3-1.6.3-1.6,3.5l.2,25.4c0,2.1.4,2.4,2,2.4,12.9,0,15.3.3,15.3.3h1.6c1.7,0,2.2-.3,2.3-3.6v-72.6c0-.1,8.1-.8,18.9-.8,7.5,0,19.6.3,27.8,1.2h.2c1.5,0,1.2-1,1.3-3.9l.6-18.6v-4.2c0-1.7-.5-1.8-2.2-1.8-10.5,0-52.9.1-61,.1Z"/>
  <g>
    <path class="cls-4" d="M55.1,547.4c-3-.9-4.3-3.6-4.6-6.6-.7-6.4.4-17.2,8-17.2,4,0,5.8,3.4,6.5,7.2.6,3.4.6,6.8.2,10.2-.4,3.3-1.7,6.3-5.1,6.8-1.7.3-3.4.1-5.1-.4ZM63.9,558.6h0c5.3-2.5,7.2-8.7,7.9-14.4.7-5.8.6-11.6-.2-17.3-.9-7.1-3.8-15.2-11.7-15.8-6.6-.5-11.5,3.7-14.1,9.5-1.5,3.2-2.3,6.6-2.6,10.1-.5,5.2-.3,10.3.7,15.4,1,5.1,3.4,10.3,8.1,12.5,0,0,0,0,0,0"/>
    <path class="cls-4" d="M63.9,558.6c-3.8,2.1-8,2.1-11.8,0,0,0,0,0,0,0"/>
  </g>
  <path class="cls-1" d="M83.1,467.3c0-2.5,0-5.1,0-7.6,0-.6,0-1.1,0-1.7,0-1.2,0-2.5,0-3.7,0,0,0,0,0,0,0-1.1,0-2.2,0-3.4.3,0,.6.1.9.2,0,0,0,0,0,0,0,0,0,0,.1,0,1.4.3,2.8.7,4.3.6,1.5-.1,3.7-.4,5.3-.7,1.9-.4,2.4-.9,4.3-2,2.4-1.4,4.2-5.3,4.2-9,0-4.6-.6-9.2-1.6-13.6l-3.6-12.5c-.9-3.1-1.8-5.9-2.2-9,0-.5.6-.9.9-1l16-5.1c1.6-.5,2.4,2.1,2.9,4.8l4,22.1c.6,3.5.9,6.8,1,10.3.1,8.9-2.5,15.5-7.9,20.3-1.5,1.4-3.1,2.5-4.7,3.5,1.1.8,2.3,1.6,3.4,2.6,5.4,4.8,8,11.4,7.9,20.3,0,3.5-.3,6.9-1,10.3l-4,22.1c-.5,2.7-1.3,5.3-2.9,4.8l-16-5.1c-.3-.1-1-.5-.9-1,.4-3.2,1.3-5.9,2.2-9l3.6-12.5c1-4.4,1.6-9,1.6-13.6,0-3.7-1.3-6.6-3.7-8-1.8-1.1-3-2.1-4.9-3-2.7-.9-6.5-1-9.4-.3h0s0,0,0,0Z"/>
  <path class="cls-1" d="M59.4,451.2c4.3,0,6.2-.4,6.2-4.8v-.6c-1.5-26.7-2.1-64.2-2.1-81.2v-1c0-4.4-.2-250.6-3.1-250.6-3.7.2-5.4.4-7,.4s-3.7-.2-7.8-.4h-2.5c-2.7,0-3.5.4-3.7,5.1v302.9H4.3c-2.5,0-2.3,1.2-2.5,5.5l-1,21.8c-.2,3.2.6,3.4,3.5,3.4,16.7,0,41.9-.6,55.1-.6Z"/>
  <path class="cls-3" d="M52.3,56.6h5.8c15.7,0,40.9,3.2,40.9,57.4,0,27.1-.4,29.2-3.1,29.2h-22.5c-2,0-2.5-.3-2.5-2.1,0-3.2,1.7-10.7,1.7-27.3,0-22.5-13.3-27.3-19.9-27.3-15.1,0-28.4,9.1-28.4,29.5,0,5.9,4,121.1,4,125.4,0,6.2-.4,6.4-2.5,6.4H8.6c-2,0-2.5-.5-3.1-5.9,0-.5-.1-1.6-.1-2.9-.3-8.8-1.2-119-1.2-124.4v-1.1c0-32.7,9.6-56.8,48.1-56.8Z"/>
  <path class="cls-4" d="M102.5,154c16.6,0,18.3,9.5,18.3,17.3,0,17.7-5,20.9-18.1,21.1-15.8,0-19.7-3.9-19.7-22.4s5.3-16.1,19.5-16.1ZM102.3,182.8c7.3-.1,10.2-1.7,10.2-10.6s-1-8.7-10.3-8.7-11,2.5-11,8c0,9.2,2.2,11.2,11.1,11.2Z"/>
  <path class="cls-3" d="M87.3,198.2c11.7,0,12.9,7,12.9,12.8,0,13.1-3.6,15.4-12.8,15.6-11.2,0-14-2.9-14-16.5s3.8-11.8,13.8-11.8ZM87.2,219.4c5.2,0,7.2-1.2,7.2-7.8s-.7-6.4-7.3-6.4-7.8,1.9-7.8,5.9c0,6.8,1.5,8.2,7.9,8.2Z"/>
  <path class="cls-1" d="M285.9,560.6c2.1,0,4.2,0,6.2,0,.5,0,.9,0,1.4,0,1,0,2,0,3.1,0,0,0,0,0,0,0,.9,0,1.8,0,2.8,0,0,.3,0,.5-.1.8,0,0,0,0,0,0,0,0,0,0,0,.1-.3,1.1-.6,2.3-.5,3.5,0,1.3.3,3,.6,4.4.3,1.5.8,2,1.7,3.5,1.2,1.9,4.4,3.5,7.4,3.4,3.7,0,7.5-.5,11.1-1.3l10.2-3c2.5-.7,4.8-1.5,7.4-1.8.4,0,.8.5.8.7l4.2,13.1c.4,1.3-1.7,2-3.9,2.4l-18.1,3.3c-2.8.5-5.6.7-8.5.8-7.3.1-12.7-2-16.7-6.4-1.1-1.2-2-2.5-2.9-3.8-.6.9-1.3,1.9-2.2,2.8-3.9,4.4-9.4,6.5-16.7,6.4-2.9,0-5.6-.3-8.5-.8l-18.1-3.3c-2.2-.4-4.4-1.1-3.9-2.4l4.2-13.1c0-.3.4-.8.8-.7,2.6.3,4.9,1.1,7.4,1.8l10.2,3c3.6.9,7.4,1.3,11.1,1.3,3,0,5.4-1.1,6.6-3,.9-1.5,1.7-2.4,2.5-4,.7-2.2.8-5.3.2-7.7h0s0,0,0,0Z"/>
  <path class="cls-2" d="M12.4,6.5c0-2.4,1.2-5.4,5.6-5.4,10.4,0,15-.3,14.8-.3,2.9,0,4.8,1.2,4.8,5.4l-.7,30c0,3.9-.2,6.9-3.9,6.9h-15.7c-2.9,0-5.3-.6-5.3-3.9l.5-32.7Z"/>
</svg>