<?xml version="1.0" encoding="UTF-8"?>
<svg id="Layer_1" xmlns="http://www.w3.org/2000/svg" viewBox="0 0 159.8 72.4">
  <defs>
    <style>
      .cls-1, .cls-2 {
        fill: #fff;
      }

      .cls-2 {
        font-family: Helvetica-Bold, Helvetica;
        font-size: 12.9px;
        font-weight: 700;
      }
    </style>
  </defs>
  <path class="cls-1" d="M101.2,37.3s0-3.7,0-23h-5.3c-.6,0-.5-.3-.6-1.2l-.2-5.6c0-.7.1-.7.8-.7,3.4,0,4.7,0,7.9,0,3.4,0,8.4-.1,11.8-.1s.8,0,.8.8l-.2,5.6c0,1,0,1.2-.6,1.2-1.4,0-3.9-.1-5.8-.1s-2.5,0-2.5.1c0,3.5,0,10,0,15.1s0,5.8,0,7.9c0,1.1-.2,1.2-.7,1.2h-4.7c-.5,0-.7,0-.7-1.2ZM110.7,40v-.2c0-3.1.2-6.5.2-9.6s0-3.3-.1-6.9c0-.8,0-1.1.7-1.1h5.5c.9,0,1,.4,1.1,1.3v16.8c0,.6,0,.5-1,.6l-5.1.2h-.5c-.5,0-.5-.1-.5-1ZM112.5,20.6c-.4,0-.8-.2-.8-1,0-1.9,0-2.7,0-2.7,0-.5.2-.9.8-.9h4.4c.6.1,1,.2,1,.8v2.9c0,.5,0,1-.6,1h-4.8Z"/>
  <path class="cls-1" d="M121.1,37l-.2-17.2c-.4-.3-.8-1-.8-1.6v-3.4c0-1,.4-1.3,1-1.3h4.5c1.2,0,1.6.2,1.6,1.4v.8c0,4.7-.3,14.8-.3,16.4,2.8,0,6.1-1,6.1-10.4s-.4-7-.4-12.5.3-.9.9-.9h17.4c1.3,0,1.4.1,1.4,1.3v3.4c0,1.2,0,1.3-.9,1.3h-12.9c-.4,0-.6,1.7-.6,3.9s.2,7,.2,9.4c0,7.7-7.5,11.4-15,11.4s-2.1-.3-2.1-1.9ZM141.2,40h-.3c-.4,0-.4,0-.4-.3v-1.2c0-4.6-.1-10.3-.1-15.6s0-4.5,0-6.4c0-.3,0-.4.2-.4h.2l15.1-.2h.1c.3,0,.3,0,.3.4v5.6c0,.3,0,.3-2.2.3s-6.1-.1-10.2-.1-.4.9-.4,1.7.1,1.6.3,1.6h11.9c.4,0,.5,0,.5.1s0,.2,0,.3l-.2,4.5c0,.7,0,.6-.8.6l-9.8.2c0,0-.2.8-.2,1.5s0,1.1.3,1.1c.8,0,1.6.1,2.6.1,1.9,0,4.4,0,6.7-.1.5,0,.4,0,.5.4l.4,5.4c0,.5-1.9.5-2,.5h-12.5Z"/>
  <path class="cls-1" d="M0,31.3v-1.9c0-5.2.5-13.6,9.5-13.6s4.8.1,4.8,1v7.5c0,.7,0,.8-.4.8-.5,0-1.8-.6-4.5-.6s-4.5,4.4-4.5,6.6c0,5.1,1.5,9.5,4.9,9.5s20-1.3,20.7-1.3c1,0,1.1.1,1.1.8v5.8c0,.7,0,.8-1,1,0,0-.3,0-.5,0-1.5,0-19.7.4-20.6.4h-.2c-5.4,0-9.4-3.2-9.4-16ZM15.7,24.5c0-5,.8-11.1,9-11.1s9.6,3.2,9.6,10.3c0,11.8-1.9,14.3-9.7,14.3-6.4-.1-8.9-2.2-8.9-13.5ZM30.5,25.8c0-3.3-.9-5.1-6.3-5.1s-4.3,2.2-4.3,4.2c0,3.3.6,5.5,4.3,5.5,4.7-.1,6.3-1.1,6.3-4.5Z"/>
  <path class="cls-1" d="M38.4,48.7c-1,0-1.4,0-1.4-1.1h0c0-2.1.5-9.7.5-17s0-3.5,0-5.2h-1c-.5,0-.6,0-.6-1.1v-8.1c0-.7.2-.8.8-.8,4.7,0,5.5,0,5.5,0h.6c.6,0,.8,0,.8,1.2v23.2s2.9.3,6.8.3,7.1,0,10.1-.4h0c.5,0,.4.3.5,1.2l.2,5.9v1.3c0,.5-.2.6-.8.6-3.8,0-19.1,0-22,0ZM47.2,37.9c-1,0-1.4,0-1.4-1.1h0c.4-6.2.5-14.8.5-18.7v-.2c0-1,0-4.2.7-4.2.8,0,1.2,0,1.6,0s.8,0,1.8,0h.6c.6,0,.8,0,.8,1.2v16.1h8c.6,0,.5.3.6,1.3l.2,5c0,.7-.1.8-.8.8-3.8,0-9.6-.1-12.6-.1Z"/>
  <g>
    <path class="cls-1" d="M140.9,71.9h-15.5s0-2.3,0-2.3v-5.4c0-1.6.8-3,2.2-3.7s2-.8,3.2-.9l3.3-.5c1.6-.2,3.3-.8,3.4-2.4s0-1.9-.2-2.8-.9-1.6-1.8-1.8-2.7-.3-4,0c-1,.2-1.6,1-1.7,2v1.4c0,.4-.4.6-.8.6h-3.6c0-2.4-.1-4.6.6-6.8.6-1.7,1.9-3,3.7-3.6s3.8-.6,5.7-.3,4.4,2.1,5.3,4.5c.6,1.6.8,3.2.9,4.9s0,2.7-.4,4c-.9,2.9-3.2,4.1-6.1,4.6l-3.1.5c-1.1.2-2.1.6-2.1,1.7,0,.4.2.7.7.8,3.5.3,6.6-.9,10.1-1.1.3.2.4.7.5,1,.3,1.5.3,3,0,4.5l-.3,1.2Z"/>
    <path class="cls-1" d="M140.9,71.9c0,.4-.4.6-.9.6-4.4-.1-8.7-.2-13.1,0-.7,0-1.5,0-1.5-.5h15.5Z"/>
  </g>
  <g>
    <path class="cls-1" d="M156.2,71.9h-9.5c-2.7-1.3-3.6-4-4-6.9-.2-1.9-.3-3.8-.3-5.7,0-5.3,1.4-13.2,6.9-15,1.6-.5,3.4-.5,5,0,3.4,1,4.9,4.5,4.6,7.9,0,.3-.3.5-.6.5h-4c-.6,0-.9-.6-.8-1.1.1-1.1-.5-1.8-1.6-2-3.6-.4-4.3,4.5-4.3,7.6,1.9-2.1,5.3-2,7.9-1.2,1.8.7,3.2,2,3.8,3.8s.6,2.2.5,3.3l-.2,3.2c-.1,2.1-1.4,4.7-3.4,5.6ZM154.4,65.2c.7-.8.8-1.6.7-2.6-.2-1.2-.9-2.2-2.1-2.5s-2.4-.3-3.5,0c-1.7.5-2.5,2.3-1.8,4,.6,1.3,1.8,2.1,3.2,2.2,1.3.1,2.6-.2,3.5-1.2Z"/>
    <path class="cls-1" d="M156.2,71.8c-2.8.9-6.7.8-9.6,0h9.6Z"/>
  </g>
  <g>
    <path class="cls-1" d="M119.1,71.6h-6.5c-2.9-1.4-4-4.8-4.4-7.9-.4-3.2-.3-6.4,0-9.5.5-3.9,2.1-8.3,6.4-8.7s6.3,2,7.8,5.2c.8,1.8,1.3,3.6,1.5,5.6.3,2.8.2,5.7-.4,8.5s-1.9,5.7-4.5,6.9ZM117.5,65.4c1.6-.5,2.3-2,2.5-3.6.4-3.5-.2-9.5-4.4-9.5s-3.2,1.9-3.6,4c-.3,1.9-.4,3.8-.1,5.6s.9,3.5,2.8,3.7c.9.1,1.9,0,2.8-.2Z"/>
    <path class="cls-1" d="M119.2,71.6c-2.1,1.2-4.4,1.2-6.6,0h6.6Z"/>
  </g>
  <g>
    <path class="cls-1" d="M105.3,59.5c1.2-1.2,1.8-2.7,2.1-4.4.3-2,.2-4-.1-6-.6-3.8-2.6-7.1-6.6-8-1.6-.4-3.3-.4-4.9-.2,0,0,0,.2,0,.3,0,0,0,.2,0,.3,0,.2,0,3.2-.1,7.2,1.9-.1,3.5,0,4.5.2.7,0,1,.2,1.3.4,1.3.8,1.2,2.8,1.2,4.4,0,2.2-2,2.9-4,3.2l-3.7.5c-1.2.2-2.3.4-3.4.9-1.9.8-3.1,2.5-3,4.6l.2,8.8h18c.5-2.2.6-4.5.1-6.8,0-.3-.2-.8-.5-.9-4,.2-7.6,1.6-11.7,1.3-.5,0-.8-.4-.8-.9.1-3.3,7.6-1.1,11.4-4.9Z"/>
    <path class="cls-1" d="M106.7,71.8c-.1.5-.5.7-1.1.7-5.1-.2-10-.2-15.1,0-.8,0-1.7,0-1.9-.6h18.1Z"/>
  </g>
  <text class="cls-2" transform="translate(2.6 11.1)"><tspan x="0" y="0" xml:space="preserve">Srishti  </tspan></text>
  <text class="cls-2" transform="translate(44.7 11.1)"><tspan x="0" y="0" xml:space="preserve">Manipal  </tspan></text>
  <g>
    <path class="cls-1" d="M94.3,41.3c0-.2,0-.4,0-.5h-11c0,0-11.9.2-11.9.2-1.6,0-3,0-4.5-.2-.2-1.6-.3-3.1-.3-4.7l12.4-.4c.2,0,.4,0,.5-.1l.4-6.8h-6.5s-6.8,0-6.8,0c-.4-1.2-.3-4.1.3-4h5.5c0,0,6.7.1,6.7.1.2,0,.6,0,.7-.2v-7.7s-17.3.4-17.3.4v4c-.1,0,0,13,0,13v4.4s0,9.6,0,9.6c0,.2.2.3.4.3h21.5c0,0,9.6.1,9.6.1,0-2.5.1-5,.1-7.4Z"/>
    <path class="cls-1" d="M96.2,31.2c1-.2,1.8-.3,2.7-.3s.2.3.2.4v6.6c0,.7-.8.8-1.6.8l-6.6.2c-1,0-2,0-3-.3-2.5-.5-4.2-2-5-4.4s-.8-3-.9-4.6c-.1-1.9,0-3.8,0-5.7.1-3.3,1.3-6.2,4.6-7.5s2.6-.8,4-.7h5c.8,0,1.6.1,2.4.4s.4.3.4.5v8.3c0,.3-.2.4-.5.4-1,0-1.9-.1-2.9-.3l-3.3-.5c-1.3-.2-2.6,0-3.9.2-.9.2-1.4.8-1.5,1.7,0,1,0,2.1.1,3.1.2,1,.9,1.7,1.9,2s2.6.4,4,.2l3.9-.6Z"/>
  </g>
</svg>